<!DOCTYPE svg PUBLIC "-//W3C//DTD SVG 1.1//EN" "http://www.w3.org/Graphics/SVG/1.1/DTD/svg11.dtd">
<!-- Uploaded to: SVG Repo, www.svgrepo.com, Transformed by: SVG Repo Mixer Tools -->
<svg fill="#fff" height="800px" width="800px" version="1.1" id="Layer_1" xmlns="http://www.w3.org/2000/svg" xmlns:xlink="http://www.w3.org/1999/xlink" viewBox="0 0 512 512" xml:space="preserve" stroke="#fff">
<g id="SVGRepo_bgCarrier" stroke-width="0"/>
<g id="SVGRepo_tracerCarrier" stroke-linecap="round" stroke-linejoin="round"/>
<g id="SVGRepo_iconCarrier"> <g> <g> <g> <path d="M425.284,284.245h-6.219c-5.723,0-10.364,4.64-10.364,10.364s4.641,10.364,10.364,10.364h6.219 c5.723,0,10.364-4.64,10.364-10.364S431.008,284.245,425.284,284.245z"/> <path d="M501.636,351.311h-1.897v-98.164v-0.383c0-1.136-0.188-2.265-0.552-3.34l-20.146-59.177 c-5.185-15.25-19.496-25.497-35.61-25.497h-57.702v-46.81c0-2.749-1.092-5.385-3.036-7.329l-14.167-14.166 c-4.048-4.047-10.611-4.047-14.658,0c-4.047,4.047-4.047,10.61,0,14.657l11.131,11.13v42.361l-26.148-27.687 c-1.959-2.073-4.685-3.248-7.536-3.248H72.206c-2.851,0-5.577,1.174-7.536,3.248l-44.049,46.64 c-1.817,1.924-2.828,4.47-2.828,7.116v52.125h-7.428C4.641,242.786,0,247.426,0,253.15s4.641,10.364,10.364,10.364h7.428v98.159 c0,5.724,4.641,10.364,10.364,10.364h23.395c1.396,25.905,22.908,46.554,49.155,46.554c15.787,0,29.851-7.478,38.866-19.067 c9.015,11.589,23.079,19.067,38.866,19.067c26.247,0,47.759-20.648,49.155-46.554h137.479 c1.396,25.905,22.908,46.554,49.155,46.554c26.249,0,47.762-20.65,49.155-46.557l38.251,0.005c5.723,0,10.364-4.64,10.364-10.364 S507.359,351.311,501.636,351.311z M38.521,194.784l23.32-24.691v72.695h-23.32V194.784z M100.708,397.865 c-15.716,0-28.502-12.785-28.502-28.502s12.786-28.502,28.502-28.502c15.715,0,28.502,12.785,28.502,28.502 S116.423,397.865,100.708,397.865z M178.44,397.865c-15.716,0-28.502-12.785-28.502-28.502s12.786-28.502,28.502-28.502 s28.502,12.785,28.502,28.502S194.156,397.865,178.44,397.865z M364.999,351.311H224.228 c-7.216-18.238-25.013-31.179-45.788-31.179c-15.787,0-29.852,7.478-38.866,19.067c-9.015-11.589-23.079-19.067-38.866-19.067 c-20.774,0-38.572,12.941-45.788,31.179H38.521v-46.64h326.478V351.311z M364.999,283.943H38.521v-20.426h71.859 c5.723,0,10.364-4.64,10.364-10.364c0-5.724-4.641-10.364-10.364-10.364H82.57v-88.4h235.271v88.4h-132.06 c-5.723,0-10.364,4.64-10.364,10.364c0,5.724,4.641,10.364,10.364,10.364h179.218V283.943z M364.999,242.788H338.57V166.8 l26.429,27.984V242.788z M443.429,185.478c7.233,0,13.658,4.598,15.986,11.444l15.613,45.86h-23.505l-24.334-10.968v-46.337 H443.429z M414.23,397.865c-15.716,0-28.502-12.785-28.502-28.502s12.787-28.502,28.502-28.502 c15.715,0,28.502,12.785,28.502,28.502S429.945,397.865,414.23,397.865z M479.01,351.308h-18.994 c-7.217-18.237-25.013-31.176-45.787-31.176c-10.616,0-20.449,3.389-28.499,9.126v-143.78h20.729v53.034 c0,4.076,2.39,7.774,6.107,9.449l32.472,14.634c1.338,0.604,2.789,0.915,4.258,0.915h29.715V351.308z"/> <path d="M147.692,242.788h-0.518c-5.723,0-10.364,4.64-10.364,10.364c0,5.724,4.641,10.364,10.364,10.364h0.518 c5.723,0,10.364-4.64,10.364-10.364C158.057,247.428,153.416,242.788,147.692,242.788z"/> </g> </g> </g> </g>
</svg>